
<svg width="38" height="39" viewBox="0 0 38 39" fill="none" xmlns="http://www.w3.org/2000/svg">
<circle cx="19" cy="19.5" r="18.5" stroke="#E2E2E2"/>
<path d="M20.3144 17.1026C19.9734 16.7614 19.5685 16.4908 19.1228 16.3061C18.6772 16.1215 18.1995 16.0265 17.7171 16.0265C17.2348 16.0265 16.7571 16.1215 16.3114 16.3061C15.8658 16.4908 15.4609 16.7614 15.1199 17.1026L11.4094 20.8141C10.7207 21.5029 10.3339 22.4371 10.334 23.4112C10.3341 24.3853 10.7211 25.3194 11.41 26.0081C12.0988 26.6968 13.033 27.0836 14.0071 27.0835C14.9812 27.0834 15.9153 26.6964 16.604 26.0076L16.9518 25.6782M16.604 20.8141C16.9451 21.1552 17.35 21.4258 17.7956 21.6105C18.2413 21.7951 18.7189 21.8901 19.2013 21.8901C19.6837 21.8901 20.1614 21.7951 20.607 21.6105C21.0527 21.4258 21.4576 21.1552 21.7986 20.8141L25.5079 17.1026C26.1968 16.4139 26.5838 15.4797 26.5839 14.5056C26.584 13.5316 26.1972 12.5974 25.5085 11.9085C24.8198 11.2197 23.8856 10.8326 22.9116 10.8325C21.9375 10.8324 21.0033 11.2193 20.3144 11.908L19.2008 12.9491" stroke="#303030" stroke-width="2" stroke-linecap="round" stroke-linejoin="round"/>
</svg>
