<svg width="104" height="29" viewBox="0 0 104 29" fill="none" xmlns="http://www.w3.org/2000/svg">
<g clip-path="url(#clip0_58_1844)">
<path d="M90.3351 4.84521H85.0725V23.7073H90.3351C95.4932 23.7073 99.6901 19.4764 99.6901 14.2763C99.6901 9.0762 95.4932 4.84521 90.3351 4.84521ZM90.3351 20.5034H88.2506V8.04918H90.3351C93.7414 8.04918 96.512 10.8423 96.512 14.2763C96.512 17.7102 93.7414 20.5034 90.3351 20.5034Z" fill="white"/>
<path d="M90.3351 0.5H80.7625V28.0523H90.3351C97.8703 28.0523 104 21.8726 104 14.2762C104 6.6797 97.8703 0.5 90.3351 0.5ZM90.3351 24.8484H83.9406V3.70396H90.3351C96.1166 3.70396 100.822 8.44583 100.822 14.2762C100.822 20.1065 96.1184 24.8484 90.3351 24.8484Z" fill="white"/>
<path d="M4.31006 16.6393V18.4616C4.31006 21.6006 6.84384 24.155 9.95752 24.155H10.8962C13.7573 24.155 16.0839 21.8078 16.0839 18.9251V4.89964C16.0839 4.86979 16.0595 4.84521 16.0299 4.84521H11.5927V8.04918H12.9058V18.9251C12.9058 20.0434 12.0037 20.9511 10.8962 20.9511H9.95752C8.59572 20.9511 7.48817 19.8345 7.48817 18.4616V16.6393H4.31006Z" fill="white"/>
<path d="M16.0316 0.5H11.5944V3.70396H16.0316C16.6846 3.70396 17.2175 4.24117 17.2175 4.89952V18.925C17.2175 22.4379 14.3825 25.296 10.8979 25.296H9.95924C6.22039 25.296 3.17985 22.229 3.17985 18.4615V16.6392H0V18.4615C0 23.9969 4.46677 28.5 9.9575 28.5H10.8961C16.1344 28.5 20.3939 24.2041 20.3939 18.925V4.89952C20.3939 2.47329 18.4365 0.5 16.0299 0.5H16.0316Z" fill="white"/>
<path d="M69.8382 24.8484C66.6462 24.8484 64.048 22.229 64.048 19.011V9.54132C64.048 6.32331 66.6462 3.70396 69.8382 3.70396H78.6203V0.5H69.8382C64.8926 0.5 60.8699 4.55543 60.8699 9.54132V19.011C60.8699 23.9969 64.8926 28.0523 69.8382 28.0523H78.6203V24.8484H69.8382Z" fill="white"/>
<path d="M69.8383 4.84521C67.2696 4.84521 65.1799 6.95193 65.1799 9.54143V13.7865H77.3943V11.2847H68.358V9.54143C68.358 8.71806 69.0215 8.04918 69.8383 8.04918H78.6203V4.84521H69.8383Z" fill="white"/>
<path d="M77.3943 17.429V14.9272H65.1799V19.0108C65.1799 21.6003 67.2696 23.707 69.8383 23.707H78.6203V20.503H69.8383C69.0215 20.503 68.358 19.8341 68.358 19.0108V17.429H77.3943Z" fill="white"/>
<path d="M50.4859 24.8484C47.2939 24.8484 44.6957 22.229 44.6957 19.011V9.54132C44.6957 6.32331 47.2939 3.70396 50.4859 3.70396H59.268V0.5H50.4859C45.5403 0.5 41.5176 4.55543 41.5176 9.54132V19.011C41.5176 23.9969 45.5403 28.0523 50.4859 28.0523H59.268V24.8484H50.4859Z" fill="white"/>
<path d="M50.486 4.84521C47.9174 4.84521 45.8276 6.95193 45.8276 9.54143V13.7865H58.042V11.2847H49.0057V9.54143C49.0057 8.71806 49.6692 8.04918 50.486 8.04918H59.268V4.84521H50.486Z" fill="white"/>
<path d="M58.042 17.429V14.9272H45.8276V19.0108C45.8276 21.6003 47.9174 23.707 50.486 23.707H59.268V20.503H50.486C49.6692 20.503 49.0057 19.8341 49.0057 19.0108V17.429H58.042Z" fill="white"/>
<path d="M26.4751 14.9272V28.0749H29.6532V17.429H38.6895V14.9272H26.4751Z" fill="white"/>
<path d="M25.3432 9.54132C25.3432 6.32331 27.9414 3.70396 31.1334 3.70396H39.9154V0.5H31.1334C26.1877 0.5 22.165 4.55543 22.165 9.54132V28.0751H25.3432V9.54132Z" fill="white"/>
<path d="M31.1334 4.84521C28.5648 4.84521 26.4751 6.95193 26.4751 9.54143V13.7865H38.6895V11.2847H29.6532V9.54143C29.6532 8.71806 30.3167 8.04918 31.1334 8.04918H39.9155V4.84521H31.1334Z" fill="white"/>
</g>
<defs>
<clipPath id="clip0_58_1844">
<rect width="104" height="28" fill="white" transform="translate(0 0.5)"/>
</clipPath>
</defs>
</svg>
